<svg width="250" height="60" viewBox="0 0 250 60" fill="none" xmlns="http://www.w3.org/2000/svg">
<path d="M24.3164 25.3321L24.3164 34.0685L19.6875 34.0685L19.6875 25.3321C19.6875 24.0196 19.1895 23.3633 18.1934 23.3633C17.1973 23.3633 16.6992 24.0196 16.6992 25.3321L16.6992 34.0685L12.0703 34.0685L12.0703 25.3321C12.0703 24.0196 11.5723 23.3633 10.5762 23.3633C9.58008 23.3633 9.08203 24.0196 9.08203 25.3321L9.08203 34.0685L4.45312 34.0685L4.45312 21.9473L7.60156 21.9473L7.94922 23.9102C8.83398 22.7715 10.0781 21.5098 12.2441 21.5098C13.8398 21.5098 14.9551 22.2481 15.5254 23.6153C16.4102 22.3956 17.6543 21.5098 19.5137 21.5098C22.4316 21.5098 24.3164 22.9366 24.3164 25.3321Z" fill="#222222"/>
<path d="M37.7774 34.0685L33.1485 34.0685L33.1485 21.9473L37.7774 21.9473L37.7774 24.8575L42.5801 21.9473L46.6582 21.9473L41.7559 27.752L46.8321 34.0685L42.5801 34.0685L39.4063 29.5489L37.7774 30.7105V34.0685Z" fill="#222222"/>
<path d="M59.584 28.2403C59.584 31.7559 56.8399 34.5001 53.3243 34.5001C49.8086 34.5001 47.0645 31.7559 47.0645 28.2403C47.0645 24.7247 49.8086 21.9805 53.3243 21.9805C56.8399 21.9805 59.584 24.7247 59.584 28.2403ZM54.9551 28.2403C54.9551 26.4004 54.2618 24.8575 53.3243 24.8575C52.3868 24.8575 51.6934 26.4004 51.6934 28.2403C51.6934 30.0801 52.3868 31.6231 53.3243 31.6231C54.2618 31.6231 54.9551 30.0801 54.9551 28.2403Z" fill="#222222"/>
<path d="M69.9356 21.9473L65.3067 21.9473L65.3067 34.0685L69.9356 34.0685L69.9356 21.9473Z" fill="#222222"/>
<path d="M83.3829 28.2403C83.3829 31.7559 80.6387 34.5001 77.1231 34.5001C73.6075 34.5001 70.8633 31.7559 70.8633 28.2403C70.8633 24.7247 73.6075 21.9805 77.1231 21.9805C80.6387 21.9805 83.3829 24.7247 83.3829 28.2403ZM78.7539 28.2403C78.7539 26.4004 78.0606 24.8575 77.1231 24.8575C76.1856 24.8575 75.4922 26.4004 75.4922 28.2403C75.4922 30.0801 76.1856 31.6231 77.1231 31.6231C78.0606 31.6231 78.7539 30.0801 78.7539 28.2403Z" fill="#222222"/>
<path d="M96.8692 21.9473L92.2403 21.9473L92.2403 34.0685L96.8692 34.0685L96.8692 21.9473Z" fill="#222222"/>
<path d="M110.316 28.2403C110.316 31.7559 107.572 34.5001 104.057 34.5001C100.541 34.5001 97.7969 31.7559 97.7969 28.2403C97.7969 24.7247 100.541 21.9805 104.057 21.9805C107.572 21.9805 110.316 24.7247 110.316 28.2403ZM105.687 28.2403C105.687 26.4004 104.994 24.8575 104.057 24.8575C103.119 24.8575 102.426 26.4004 102.426 28.2403C102.426 30.0801 103.119 31.6231 104.057 31.6231C104.994 31.6231 105.687 30.0801 105.687 28.2403Z" fill="#222222"/>
<path d="M123.754 21.9473L119.125 21.9473L119.125 34.0685L123.754 34.0685L123.754 21.9473Z" fill="#222222"/>
<path d="M137.201 28.2403C137.201 31.7559 134.457 34.5001 130.942 34.5001C127.426 34.5001 124.682 31.7559 124.682 28.2403C124.682 24.7247 127.426 21.9805 130.942 21.9805C134.457 21.9805 137.201 24.7247 137.201 28.2403ZM132.572 28.2403C132.572 26.4004 131.879 24.8575 130.942 24.8575C130.004 24.8575 129.311 26.4004 129.311 28.2403C129.311 30.0801 130.004 31.6231 130.942 31.6231C131.879 31.6231 132.572 30.0801 132.572 28.2403Z" fill="#222222"/>
<path d="M146.137 21.9473L141.508 21.9473L141.508 34.0685L146.137 34.0685L146.137 21.9473Z" fill="#222222"/>
<path d="M159.584 28.2403C159.584 31.7559 156.84 34.5001 153.324 34.5001C149.809 34.5001 147.064 31.7559 147.064 28.2403C147.064 24.7247 149.809 21.9805 153.324 21.9805C156.84 21.9805 159.584 24.7247 159.584 28.2403ZM154.955 28.2403C154.955 26.4004 154.262 24.8575 153.324 24.8575C152.387 24.8575 151.693 26.4004 151.693 28.2403C151.693 30.0801 152.387 31.6231 153.324 31.6231C154.262 31.6231 154.955 30.0801 154.955 28.2403Z" fill="#222222"/>
<path d="M169.936 21.9473L165.307 21.9473L165.307 34.0685L169.936 34.0685L169.936 21.9473Z" fill="#222222"/>
<path d="M183.383 28.2403C183.383 31.7559 180.639 34.5001 177.123 34.5001C173.607 34.5001 170.863 31.7559 170.863 28.2403C170.863 24.7247 173.607 21.9805 177.123 21.9805C180.639 21.9805 183.383 24.7247 183.383 28.2403ZM178.754 28.2403C178.754 26.4004 178.061 24.8575 177.123 24.8575C176.186 24.8575 175.492 26.4004 175.492 28.2403C175.492 30.0801 176.186 31.6231 177.123 31.6231C178.061 31.6231 178.754 30.0801 178.754 28.2403Z" fill="#222222"/>
<path d="M196.869 21.9473L192.24 21.9473L192.24 34.0685L196.869 34.0685L196.869 21.9473Z" fill="#222222"/>
<path d="M210.316 28.2403C210.316 31.7559 207.572 34.5001 204.057 34.5001C200.541 34.5001 197.797 31.7559 197.797 28.2403C197.797 24.7247 200.541 21.9805 204.057 21.9805C207.572 21.9805 210.316 24.7247 210.316 28.2403ZM205.687 28.2403C205.687 26.4004 204.994 24.8575 204.057 24.8575C203.119 24.8575 202.426 26.4004 202.426 28.2403C202.426 30.0801 203.119 31.6231 204.057 31.6231C204.994 31.6231 205.687 30.0801 205.687 28.2403Z" fill="#222222"/>
<path d="M223.754 21.9473L219.125 21.9473L219.125 34.0685L223.754 34.0685L223.754 21.9473Z" fill="#222222"/>
<path d="M237.201 28.2403C237.201 31.7559 234.457 34.5001 230.942 34.5001C227.426 34.5001 224.682 31.7559 224.682 28.2403C224.682 24.7247 227.426 21.9805 230.942 21.9805C234.457 21.9805 237.201 24.7247 237.201 28.2403ZM232.572 28.2403C232.572 26.4004 231.879 24.8575 230.942 24.8575C230.004 24.8575 229.311 26.4004 229.311 28.2403C229.311 30.0801 230.004 31.6231 230.942 31.6231C231.879 31.6231 232.572 30.0801 232.572 28.2403Z" fill="#222222"/>
<path d="M246.137 21.9473L241.508 21.9473L241.508 34.0685L246.137 34.0685L246.137 21.9473Z" fill="#222222"/>
</svg>